<?xml version="1.0" encoding="UTF-8" standalone="no"?>
<!-- Created with Inkscape (http://www.inkscape.org/) -->

<svg
   width="40.912807mm"
   height="25.064938mm"
   viewBox="0 0 40.912807 25.064938"
   version="1.1"
   id="svg1574"
   inkscape:version="1.1.1 (1:1.1+202109281944+c3084ef5ed)"
   sodipodi:docname="nlogo.svg"
   xmlns:inkscape="http://www.inkscape.org/namespaces/inkscape"
   xmlns:sodipodi="http://sodipodi.sourceforge.net/DTD/sodipodi-0.dtd"
   xmlns="http://www.w3.org/2000/svg"
   xmlns:svg="http://www.w3.org/2000/svg">
  <sodipodi:namedview
     id="namedview1576"
     pagecolor="#ffffff"
     bordercolor="#666666"
     borderopacity="1.0"
     inkscape:pageshadow="2"
     inkscape:pageopacity="0.0"
     inkscape:pagecheckerboard="0"
     inkscape:document-units="mm"
     showgrid="false"
     fit-margin-top="0"
     fit-margin-left="0"
     fit-margin-right="0"
     fit-margin-bottom="0"
     inkscape:zoom="0.97724295"
     inkscape:cx="20.46574"
     inkscape:cy="54.745854"
     inkscape:window-width="1920"
     inkscape:window-height="1027"
     inkscape:window-x="0"
     inkscape:window-y="27"
     inkscape:window-maximized="1"
     inkscape:current-layer="layer1" />
  <defs
     id="defs1571" />
  <g
     inkscape:label="Layer 1"
     inkscape:groupmode="layer"
     id="layer1"
     transform="translate(-73.887994,-87.706475)">
    <path
       id="path1399"
       style="fill:#2696c2;fill-opacity:1;stroke:none;stroke-width:0.254114"
       d="m 77.029683,87.707582 c -1.070785,-0.02953 -2.156824,0.532384 -2.743502,1.586984 -0.350961,0.630885 -0.402609,1.807718 -0.397909,9.064045 0.0051,7.811479 0.03684,8.413179 0.505396,9.510019 0.275106,0.644 0.766238,1.54067 1.090889,1.99264 0.798198,1.11122 2.792165,2.43193 4.104659,2.7187 0.591435,0.1292 3.572187,0.21305 6.623885,0.18655 5.089171,-0.0441 5.642445,-0.0941 6.687964,-0.60668 1.635402,-0.80171 3.057126,-2.27263 3.846794,-3.98012 0.677402,-1.46473 0.686365,-1.55063 0.767395,-7.29413 0.08823,-6.253598 0.160533,-6.586192 1.364774,-6.26525 0.330085,0.08797 0.656457,0.418216 0.740007,0.749308 0.08217,0.325622 0.150445,3.018184 0.152445,5.983612 l 0.0036,5.3914 0.75706,1.60921 c 1.33982,2.84705 3.64684,4.35732 6.64094,4.34702 3.06575,-0.0105 5.48883,-1.6028 6.81302,-4.47673 0.57896,-1.25657 0.67694,-1.84216 0.77876,-4.64881 0.13594,-3.747034 -0.0882,-4.743902 -1.32705,-5.898866 -1.4374,-1.34012 -3.65639,-0.964827 -4.62866,0.782896 -0.30811,0.553855 -0.40307,1.411227 -0.40307,3.63079 0,2.55634 -0.0591,2.96846 -0.493,3.42924 -0.5762,0.61184 -0.75219,0.63853 -1.29243,0.19637 -0.34291,-0.28065 -0.41219,-1.16752 -0.48782,-6.219254 -0.0816,-5.448014 -0.12969,-5.981084 -0.63562,-7.07812 -0.88456,-1.918026 -1.9292,-3.051879 -3.62975,-3.940844 -1.48459,-0.776068 -1.72211,-0.822897 -3.628204,-0.712619 -2.311664,0.133742 -3.152423,0.504376 -4.801774,2.118733 -2.070842,2.02691 -2.152108,2.358523 -2.292883,9.307444 -0.114705,5.66192 -0.158955,6.13687 -0.602548,6.48074 -0.586389,0.45456 -8.996141,0.54088 -9.771496,0.10025 -0.454153,-0.25809 -0.476973,-0.62253 -0.476973,-7.602634 0,-8.065867 -0.06493,-8.497781 -1.465027,-9.74876 -0.520419,-0.46499 -1.157419,-0.695415 -1.79989,-0.713134 z m 34.522957,0.0057 c -1.88692,0 -3.14554,1.389991 -3.14554,3.474206 0,1.359101 0.65429,2.418549 1.82882,2.961574 0.93689,0.433157 1.39377,0.451845 2.28565,0.09302 3.35006,-1.34782 2.58112,-6.5288 -0.96893,-6.5288 z" />
  </g>
</svg>
