<?xml version="1.0" encoding="UTF-8" standalone="no"?>
<!-- Created with Inkscape (http://www.inkscape.org/) -->

<svg
   width="165.05643mm"
   height="25.439556mm"
   viewBox="0 0 165.05643 25.439556"
   version="1.1"
   id="svg5"
   xml:space="preserve"
   xmlns:inkscape="http://www.inkscape.org/namespaces/inkscape"
   xmlns:sodipodi="http://sodipodi.sourceforge.net/DTD/sodipodi-0.dtd"
   xmlns="http://www.w3.org/2000/svg"
   xmlns:svg="http://www.w3.org/2000/svg"><sodipodi:namedview
     id="namedview7"
     pagecolor="#ffffff"
     bordercolor="#000000"
     borderopacity="0.25"
     inkscape:showpageshadow="2"
     inkscape:pageopacity="0.0"
     inkscape:pagecheckerboard="0"
     inkscape:deskcolor="#d1d1d1"
     inkscape:document-units="mm"
     showgrid="false" /><defs
     id="defs2" /><g
     inkscape:label="Layer 1"
     inkscape:groupmode="layer"
     id="layer1"
     transform="translate(-17.182171,-42.915133)"><path
       style="fill:#0086a7;fill-opacity:1;stroke-width:0.188598"
       d="m 21.413394,68.172849 c -0.974105,-0.212827 -2.454033,-1.19303 -3.046439,-2.017754 -0.240949,-0.335443 -0.605145,-1.000955 -0.809323,-1.478918 -0.34775,-0.814044 -0.371487,-1.260517 -0.375252,-7.058033 -0.0035,-5.385488 0.03485,-6.258869 0.295321,-6.727102 0.696673,-1.252323 2.341974,-1.568714 3.371959,-0.648435 1.039124,0.928451 1.087292,1.248984 1.087292,7.235303 0,5.180483 0.01695,5.450658 0.354014,5.642207 0.575452,0.327026 6.816999,0.263147 7.252205,-0.07422 0.329225,-0.255213 0.362006,-0.607852 0.447138,-4.81001 0.10448,-5.157342 0.165068,-5.403233 1.702003,-6.907563 1.224114,-1.198144 1.847868,-1.473425 3.563536,-1.572684 1.414666,-0.08185 1.59124,-0.0472 2.69307,0.52881 1.262118,0.659767 2.037309,1.501494 2.69381,2.925008 0.375493,0.8142 0.411009,1.209848 0.471542,5.253247 0.05613,3.749287 0.107784,4.40737 0.362284,4.615663 0.400948,0.328154 0.531302,0.308338 0.958948,-0.145757 0.32206,-0.341981 0.366046,-0.647811 0.366046,-2.545073 0,-1.64731 0.07067,-2.283402 0.299341,-2.694465 0.721594,-1.297129 2.368274,-1.575669 3.435083,-0.58106 0.919416,0.857195 1.085811,1.596776 0.98492,4.377743 -0.07557,2.083036 -0.148433,2.517909 -0.578128,3.450508 -0.982779,2.132971 -2.780989,3.31452 -5.05633,3.322335 -2.222157,0.0076 -3.934263,-1.113024 -4.928648,-3.226044 l -0.562036,-1.194307 -0.0025,-4.001592 c -0.0015,-2.200872 -0.0524,-4.199322 -0.113383,-4.440991 -0.06201,-0.245728 -0.303964,-0.490854 -0.548946,-0.556144 -0.893762,-0.238195 -0.947547,0.0087 -1.013029,4.649974 -0.06014,4.262705 -0.06687,4.326658 -0.569624,5.41375 -0.586075,1.267263 -1.640994,2.358786 -2.854755,2.953798 -0.775962,0.380396 -1.186942,0.417691 -4.964017,0.45045 -2.264906,0.01967 -4.477154,-0.04275 -4.916104,-0.138646 z m 33.530571,-7.42e-4 c -1.1506,-0.24172 -2.087084,-0.825162 -3.014693,-1.878188 -1.367453,-1.552341 -1.474457,-2.136184 -1.406866,-7.676067 0.0572,-4.688166 0.06111,-4.729001 0.546705,-5.706013 0.571538,-1.149924 1.709458,-2.304413 2.780239,-2.820718 0.701935,-0.338448 1.31884,-0.365397 8.457275,-0.369352 8.658014,-0.0045 8.749903,0.0076 10.215699,1.377647 0.459365,0.429365 1.050562,1.260739 1.337065,1.880258 0.465807,1.007241 0.51957,1.341615 0.577861,3.594054 0.07362,2.845811 0.0193,3.19318 -0.62677,4.008538 -0.996271,1.257229 -2.839918,1.179196 -3.686091,-0.156014 -0.372448,-0.587731 -0.418493,-0.89385 -0.418493,-2.782206 0,-1.167002 -0.08526,-2.29098 -0.189463,-2.497729 -0.182131,-0.361374 -0.454392,-0.375913 -7.039938,-0.375913 -6.585547,0 -6.857802,0.01455 -7.039937,0.375913 -0.111026,0.220286 -0.189462,1.865096 -0.189462,3.973025 0,3.496843 0.01133,3.60555 0.40677,3.899653 0.345254,0.256779 1.202353,0.302535 5.667604,0.302535 h 5.260833 l 0.629768,0.668718 c 1.048187,1.113023 1.092317,2.538667 0.110852,3.58085 -0.287869,0.305674 -0.785722,0.611481 -1.106336,0.679568 -0.838202,0.178012 -10.36743,0.111572 -11.272622,-0.07859 z m 16.232455,-0.04527 c -0.966695,-0.363089 -1.523486,-1.366997 -1.418883,-2.558291 0.06991,-0.796447 0.196759,-1.069138 0.745712,-1.603336 0.559825,-0.544775 0.798681,-0.643677 1.554575,-0.643677 1.834065,0 2.908844,1.829857 2.116361,3.603197 -0.51344,1.148915 -1.783456,1.658198 -2.997765,1.202107 z m 10.560382,0.04216 c -1.609437,-0.41654 -2.989385,-1.605608 -3.821234,-3.292706 -0.419465,-0.850738 -0.431206,-1.006848 -0.431206,-5.733147 0,-3.55123 0.06561,-5.055441 0.243836,-5.590151 0.42371,-1.271219 1.545773,-2.569001 2.79365,-3.231143 l 1.139,-0.604371 h 5.745075 c 6.3492,0 6.511447,0.02761 7.19849,1.224083 0.459468,0.800158 0.4548,1.81272 -0.0121,2.625903 -0.650809,1.133478 -1.046205,1.202946 -6.846355,1.202946 -4.969187,0 -5.224541,0.01774 -5.405054,0.375914 -0.11054,0.219336 -0.189456,1.838332 -0.189456,3.886872 0,3.251843 0.02702,3.539652 0.366043,3.899653 0.352431,0.374229 0.610079,0.388687 6.926498,0.388687 6.123236,0 6.580648,-0.02367 6.863366,-0.355407 0.266791,-0.313029 0.302898,-1.009245 0.302898,-5.839961 0,-5.944423 0.03347,-6.172443 1.027651,-7.002845 0.998913,-0.834342 2.831966,-0.327672 3.456866,0.955504 0.25416,0.521893 0.28551,1.426386 0.23767,6.85921 -0.0537,6.094692 -0.0661,6.279814 -0.47448,7.092025 -0.54725,1.088294 -1.657183,2.218283 -2.740289,2.789821 -0.863563,0.45569 -0.894823,0.457553 -8.279266,0.49242 -4.076837,0.0193 -7.722551,-0.04527 -8.101605,-0.143351 z m 26.760888,-0.0541 c -1.64187,-0.480254 -2.98647,-1.718386 -3.71744,-3.423068 -0.34804,-0.811676 -0.38507,-1.328975 -0.45026,-6.289224 -0.0871,-6.632014 -0.046,-6.992298 0.90808,-7.956054 0.5878,-0.59378 0.85789,-0.729094 1.45524,-0.729094 0.40341,0 0.97506,0.132657 1.27035,0.2948 1.04293,0.572681 1.09214,0.887387 1.09214,6.983437 0,5.289323 0.0171,5.566594 0.36605,5.937134 0.35232,0.374118 0.61007,0.388687 6.87539,0.388687 4.13705,0 6.63836,-0.07333 6.86336,-0.201183 0.33166,-0.188483 0.35401,-0.4436 0.35401,-4.042351 0,-2.728443 -0.0636,-3.908723 -0.21963,-4.074377 -0.16026,-0.170175 -1.59168,-0.233215 -5.29575,-0.233215 -3.15137,0 -5.27148,-0.0786 -5.59135,-0.207283 -1.784,-0.717754 -2.13125,-2.900532 -0.67709,-4.25627 l 0.65285,-0.608661 6.0688,0.05819 c 6.87645,0.06598 6.74665,0.03874 8.30108,1.742695 1.44237,1.581131 1.51108,1.919638 1.51566,7.467233 l 0.004,4.876138 -0.56289,1.196118 c -0.6002,1.275405 -1.61098,2.30661 -2.83715,2.894475 -0.6441,0.308806 -1.48066,0.348394 -8.1304,0.384783 -5.47774,0.02998 -7.62974,-0.02301 -8.24507,-0.202993 z m 27.27944,0.08444 c -1.56168,-0.346999 -3.23789,-1.719703 -3.93911,-3.225889 -0.33354,-0.716395 -0.36193,-1.188955 -0.36193,-6.024652 0,-5.957018 0.008,-5.993837 1.58635,-7.61765 1.58842,-1.633826 1.40213,-1.604576 10.24839,-1.609408 l 7.80823,-0.0045 1.15424,0.634466 c 1.33159,0.731967 2.36539,2.020026 2.75094,3.427553 0.17359,0.633695 0.24482,2.222596 0.24482,5.46082 v 4.567079 l -0.50876,1.100088 c -0.58589,1.266847 -1.64046,2.358236 -2.85477,2.954443 -0.81564,0.400465 -1.10876,0.416526 -8.16691,0.447564 -4.0265,0.01766 -7.60917,-0.03184 -7.96149,-0.110147 z m 14.4588,-5.266495 c 0.3386,-0.359534 0.36605,-0.647811 0.36605,-3.843633 0,-2.812458 -0.053,-3.535266 -0.28492,-3.886873 l -0.28491,-0.431933 h -6.72485 c -4.98642,0 -6.78164,0.06027 -6.9445,0.233215 -0.15599,0.165647 -0.21962,1.345303 -0.21962,4.071564 0,3.450538 0.0324,3.858358 0.32029,4.036436 0.20083,0.124211 2.76068,0.200292 6.86335,0.204003 6.30295,0.0059 6.5565,-0.0084 6.90911,-0.382779 z m -7.59545,-1.49863 c -0.59762,-0.152057 -1.54352,-1.247194 -1.66343,-1.92588 -0.15335,-0.867993 0.20749,-1.908157 0.86609,-2.496608 0.43008,-0.384278 0.75323,-0.492221 1.4735,-0.492221 0.82768,0 0.99571,0.07762 1.63316,0.754507 0.60888,0.646542 0.71046,0.875979 0.70988,1.603336 -0.001,1.811206 -1.37571,2.975025 -3.0192,2.556866 z m 17.11897,6.693638 c -0.356,-0.13429 -0.81767,-0.528936 -1.05238,-0.899603 -0.41295,-0.652152 -0.41814,-0.734542 -0.41814,-6.633951 0,-5.06719 0.0468,-6.127229 0.30795,-6.986079 0.39219,-1.289469 1.60362,-2.733615 2.84343,-3.389657 l 0.947,-0.501089 5.86654,7.19e-4 c 6.57824,7.43e-4 6.67627,0.01982 7.29963,1.41469 0.38153,0.853751 0.38508,1.360399 0.0154,2.187773 -0.59566,1.332916 -0.65898,1.346297 -6.66456,1.408455 -4.76876,0.04936 -5.42588,0.09341 -5.62795,0.37725 -0.17036,0.239293 -0.22895,1.713884 -0.22947,5.774426 -5.4e-4,5.062262 -0.0263,5.497572 -0.3573,6.074126 -0.66298,1.154578 -1.78646,1.604317 -2.93008,1.172932 z M 44.158696,54.493935 c -0.871715,-0.403026 -1.357148,-1.189171 -1.357148,-2.197867 0,-1.546857 0.934281,-2.578827 2.334713,-2.578827 2.634774,0 3.205348,3.845326 0.719004,4.845649 -0.661934,0.266309 -1.001234,0.252519 -1.696569,-0.06895 z m 134.678144,-0.003 c -0.89704,-0.42777 -1.3676,-1.361973 -1.27275,-2.526815 0.0652,-0.801004 0.18749,-1.066081 0.73958,-1.603337 0.55983,-0.544766 0.79869,-0.643669 1.55458,-0.643669 1.83406,0 2.90884,1.829857 2.11637,3.603197 -0.52892,1.183545 -1.97744,1.723955 -3.13778,1.170631 z M 98.165951,47.693728 c -2.459729,-1.160857 -1.763869,-4.778594 0.919145,-4.778594 0.758017,0 0.948814,0.0915 1.573194,0.754514 0.60887,0.646535 0.71046,0.875979 0.70987,1.603329 -7.4e-4,1.084925 -0.54884,2.0509 -1.37011,2.415273 -0.768281,0.340861 -1.119236,0.341915 -1.832099,0.0052 z m 7.608459,-0.06605 c -0.91918,-0.497691 -1.3547,-1.230006 -1.34013,-2.253397 0.0211,-1.47839 0.95179,-2.459135 2.33374,-2.459135 1.41586,0 2.28778,0.986259 2.28778,2.587777 0,1.017156 -0.49621,1.797313 -1.39751,2.197191 -0.79035,0.350658 -1.12635,0.337736 -1.88388,-0.07244 z"
       id="path854" /></g></svg>
