<?xml version="1.0" encoding="UTF-8" standalone="no"?>
<!-- Created with Inkscape (http://www.inkscape.org/) -->

<svg
   width="222.39438mm"
   height="34.276745mm"
   viewBox="0 0 222.39438 34.276745"
   version="1.1"
   id="svg5"
   xmlns="http://www.w3.org/2000/svg"
   xmlns:svg="http://www.w3.org/2000/svg">
  <defs
     id="defs2" />
  <g
     id="layer1"
     transform="translate(-0.61160494,-56.831276)">
    <path
       style="fill:#000000;stroke-width:0.254114"
       d="m 6.3126834,90.863023 c -1.312494,-0.28676 -3.306525,-1.60747 -4.104723,-2.71869 -0.324651,-0.45197 -0.815362,-1.34867 -1.090468,-1.99267 -0.46855305,-1.09683 -0.50053605,-1.6984 -0.50560905,-9.50988 -0.0047,-7.256327 0.04695,-8.433107 0.39791105,-9.063992 0.938685,-1.687359 3.155538,-2.113663 4.543323,-0.873687 1.400099,1.250978 1.465,1.682858 1.465,9.748726 0,6.980103 0.02284,7.344133 0.476993,7.602223 0.775355,0.44063 9.1851156,0.35456 9.7715056,-0.1 0.443592,-0.34387 0.487761,-0.81901 0.602466,-6.48093 0.140775,-6.948922 0.22241,-7.280238 2.293252,-9.307147 1.649351,-1.614358 2.489787,-1.985264 4.801451,-2.119007 1.906098,-0.110278 2.144012,-0.06356 3.6286,0.712508 1.700557,0.888965 2.745037,2.02309 3.629596,3.941113 0.505933,1.097036 0.553787,1.63013 0.635348,7.078143 0.07563,5.05173 0.145226,5.93842 0.488136,6.21907 0.540231,0.44215 0.715868,0.41545 1.292071,-0.19639 0.433938,-0.46078 0.493204,-0.87285 0.493204,-3.42919 0,-2.21956 0.09522,-3.076628 0.403327,-3.630484 0.972265,-1.747725 3.190975,-2.123027 4.628376,-0.782909 1.238807,1.154966 1.463005,2.151473 1.327066,5.898503 -0.101822,2.80665 -0.199997,3.39259 -0.778961,4.64916 -1.324181,2.87393 -3.74706,4.46593 -6.812818,4.47646 -2.994098,0.0103 -5.300963,-1.49967 -6.640781,-4.34672 l -0.757278,-1.60919 -0.0034,-5.39168 c -0.002,-2.965428 -0.0706,-5.6581 -0.15277,-5.983723 -0.08355,-0.33109 -0.409556,-0.661374 -0.739641,-0.749344 -1.204241,-0.320941 -1.27671,0.01171 -1.364939,6.265307 -0.08103,5.7435 -0.0901,5.82967 -0.767502,7.2944 -0.789668,1.70749 -2.21105,3.17819 -3.846452,3.9799 -1.045519,0.51254 -1.599266,0.56279 -6.688437,0.60693 -3.0516986,0.0265 -6.0324456,-0.0576 -6.6238806,-0.18681 z m 45.1785546,-0.001 c -1.5503,-0.32569 -2.812103,-1.11181 -4.061949,-2.53064 -1.842484,-2.0916 -1.986659,-2.87826 -1.895589,-10.34261 0.07707,-6.316766 0.08234,-6.371782 0.736622,-7.688189 0.770081,-1.549395 2.303297,-3.104933 3.746049,-3.80059 0.945777,-0.456029 1.776984,-0.49233 11.395197,-0.497662 11.66567,-0.0065 11.78948,0.01023 13.76447,1.856217 0.61894,0.578516 1.41551,1.698701 1.80154,2.533427 0.62762,1.357142 0.70006,1.807675 0.7786,4.842572 0.0992,3.834405 0.026,4.302445 -0.8445,5.401045 -1.34236,1.69397 -3.82646,1.58883 -4.96658,-0.21021 -0.50183,-0.7919 -0.56387,-1.20436 -0.56387,-3.748702 0,-1.572398 -0.11488,-3.086828 -0.25528,-3.3654 -0.2454,-0.48691 -0.61224,-0.506497 -9.485499,-0.506497 -8.873261,0 -9.240093,0.01959 -9.485499,0.506497 -0.149594,0.296811 -0.255278,2.513 -0.255278,5.353192 0,4.71159 0.01526,4.85806 0.548076,5.25433 0.465189,0.34598 1.620031,0.40763 7.636438,0.40763 h 7.088362 l 0.84854,0.90102 c 1.41231,1.49967 1.47177,3.42056 0.14936,4.82478 -0.38787,0.41186 -1.05867,0.8239 -1.49066,0.91564 -1.12938,0.23985 -13.968909,0.15033 -15.18855,-0.10589 z m 21.87135,-0.061 c -1.30251,-0.48922 -2.05272,-1.84187 -1.91178,-3.447 0.0942,-1.07312 0.26511,-1.44054 1.00476,-2.16031 0.7543,-0.73402 1.07613,-0.86728 2.09461,-0.86728 2.47119,0 3.91933,2.46552 2.85155,4.85489 -0.6918,1.54803 -2.403,2.23423 -4.03914,1.6197 z m 14.22889,0.0568 c -2.16853,-0.56123 -4.02785,-2.16336 -5.14867,-4.43653 -0.56518,-1.14627 -0.581,-1.35661 -0.581,-7.72475 0,-4.784877 0.0884,-6.811622 0.32854,-7.532084 0.5709,-1.71282 2.08275,-3.461432 3.76412,-4.353593 l 1.53467,-0.814319 h 7.74082 c 8.554802,0 8.773412,0.03717 9.699122,1.649311 0.61908,1.078124 0.61279,2.44243 -0.0163,3.538097 -0.87689,1.527231 -1.40964,1.620839 -9.224662,1.620839 -6.6954,0 -7.03946,0.02393 -7.28268,0.506497 -0.14894,0.295525 -0.25527,2.476937 -0.25527,5.237112 0,4.38148 0.0364,4.76927 0.4932,5.25433 0.47486,0.50423 0.82201,0.52371 9.33265,0.52371 8.250342,0 8.866652,-0.0319 9.247582,-0.47887 0.35947,-0.42177 0.40812,-1.35984 0.40812,-7.868669 0,-8.009429 0.0451,-8.316653 1.38464,-9.435525 1.34592,-1.124183 3.81574,-0.441503 4.65773,1.287433 0.34245,0.703191 0.38468,1.921888 0.32023,9.241991 -0.0723,8.21189 -0.089,8.46132 -0.63931,9.55568 -0.73736,1.46635 -2.23286,2.98888 -3.69222,3.75896 -1.16355,0.61399 -1.20567,0.6165 -11.155342,0.66348 -5.49306,0.026 -10.40524,-0.061 -10.91597,-0.19315 z m 36.057182,-0.0729 c -2.21223,-0.64707 -4.02393,-2.31531 -5.00882,-4.61217 -0.46894,-1.09364 -0.51884,-1.79064 -0.60667,-8.474 -0.11742,-8.935873 -0.062,-9.421312 1.22353,-10.719862 0.79199,-0.800051 1.15591,-0.982374 1.96076,-0.982374 0.54355,0 1.31379,0.178747 1.71165,0.397216 1.40523,0.771619 1.47154,1.195646 1.47154,9.409367 0,7.126753 0.023,7.500343 0.49321,7.999603 0.47471,0.50408 0.822,0.52371 9.26378,0.52371 5.5742,0 8.94442,-0.0988 9.24758,-0.27107 0.44688,-0.25396 0.47699,-0.5977 0.47699,-5.4466 0,-3.676268 -0.0857,-5.266552 -0.29592,-5.489752 -0.21594,-0.229291 -2.14461,-0.314227 -7.13541,-0.314227 -4.24611,0 -7.10271,-0.105902 -7.53369,-0.279298 -2.40374,-0.96709 -2.87161,-3.90813 -0.9123,-5.734831 l 0.87963,-0.820099 8.177,0.07845 c 9.26522,0.0889 9.09033,0.05218 11.18475,2.348083 1.94343,2.13039 2.03601,2.58649 2.04217,10.061234 l 0.005,6.57003 -0.75843,1.61163 c -0.8087,1.71846 -2.17061,3.10789 -3.82272,3.89997 -0.86786,0.41608 -1.99503,0.46942 -10.95477,0.51845 -7.38063,0.0404 -10.2802,-0.031 -11.10928,-0.27351 z m 36.75588,0.11377 c -2.10419,-0.46754 -4.36268,-2.3171 -5.3075,-4.34651 -0.4494,-0.96526 -0.48765,-1.60198 -0.48765,-8.11752 0,-8.026393 0.0103,-8.076008 2.13742,-10.263903 2.14021,-2.201393 1.88921,-2.161977 13.80851,-2.168492 l 10.52069,-0.0058 1.5552,0.854873 c 1.79417,0.986239 3.18709,2.721747 3.70657,4.618224 0.23389,0.853838 0.32987,2.994692 0.32987,7.357828 v 6.15361 l -0.6855,1.48224 c -0.78941,1.70693 -2.21032,3.17745 -3.84646,3.98077 -1.09898,0.53958 -1.49393,0.56122 -11.00397,0.60304 -5.42524,0.0238 -10.25247,-0.0429 -10.72718,-0.14841 z m 19.48155,-7.09599 c 0.45622,-0.48443 0.49321,-0.87285 0.49321,-5.17885 0,-3.789459 -0.0714,-4.763363 -0.38389,-5.237112 l -0.38389,-0.581977 h -9.06096 c -6.71862,0 -9.13747,0.08123 -9.3569,0.314227 -0.21018,0.223185 -0.29592,1.812641 -0.29592,5.485962 0,4.6492 0.0436,5.19869 0.43156,5.43863 0.27059,0.16736 3.7197,0.26987 9.24757,0.27487 8.49249,0.008 8.83412,-0.0113 9.30922,-0.51575 z m -10.23398,-2.01923 c -0.80523,-0.20488 -2.07972,-1.68045 -2.24128,-2.5949 -0.20662,-1.16952 0.27957,-2.571026 1.16695,-3.363898 0.57948,-0.517762 1.01489,-0.66321 1.98537,-0.66321 1.11521,0 1.3416,0.104596 2.2005,1.016615 0.82039,0.871136 0.95726,1.180283 0.95647,2.160313 -0.002,2.44039 -1.85361,4.0085 -4.06801,3.44508 z m 23.06582,9.0189 c -0.47967,-0.18094 -1.10172,-0.71268 -1.41796,-1.21211 -0.5564,-0.8787 -0.56339,-0.98971 -0.56339,-8.93848 0,-6.827455 0.063,-8.255731 0.41492,-9.412932 0.52843,-1.737413 2.16069,-3.683228 3.8312,-4.567168 l 1.27596,-0.675166 7.90449,9.69e-4 c 8.86341,0.0011 8.9955,0.0267 9.8354,1.906134 0.51407,1.150328 0.51885,1.832983 0.0207,2.947772 -0.80258,1.795948 -0.8879,1.813976 -8.97972,1.897731 -6.42536,0.0665 -7.31075,0.125853 -7.58301,0.508296 -0.22954,0.322425 -0.30849,2.30926 -0.30918,7.780374 -7.4e-4,6.82081 -0.0354,7.40734 -0.48143,8.18418 -0.89329,1.55566 -2.40704,2.16163 -3.94794,1.58039 z M 36.95934,72.43227 c -1.174535,-0.543026 -1.8286,-1.602266 -1.8286,-2.961367 0,-2.084215 1.258836,-3.474676 3.145755,-3.474676 3.550052,0 4.318834,5.181131 0.968774,6.528949 -0.891878,0.358826 -1.349046,0.340245 -2.285929,-0.09291 z m 181.46316,-0.0039 c -1.20866,-0.576373 -1.84268,-1.835105 -1.71489,-3.404591 0.0879,-1.079264 0.25263,-1.436419 0.99651,-2.160309 0.7543,-0.734015 1.07613,-0.867267 2.09461,-0.867267 2.47119,0 3.91933,2.465518 2.85156,4.854885 -0.71265,1.59469 -2.66437,2.322833 -4.22779,1.577288 z M 109.72784,63.269879 c -3.3142,-1.564119 -2.37661,-6.4386 1.23844,-6.4386 1.02134,0 1.27841,0.123287 2.1197,1.016616 0.82038,0.871134 0.95726,1.180283 0.95647,2.160309 -0.001,1.461803 -0.73951,2.763344 -1.84607,3.254296 -1.03517,0.459272 -1.50804,0.460686 -2.46854,0.0074 z m 10.25151,-0.08901 c -1.23848,-0.670579 -1.82529,-1.65729 -1.80566,-3.036192 0.0284,-1.99196 1.28242,-3.313401 3.14444,-3.313401 1.9077,0 3.08252,1.328875 3.08252,3.486734 0,1.370496 -0.66859,2.421665 -1.88299,2.960461 -1.0649,0.472464 -1.51762,0.455056 -2.53831,-0.0976 z"
       id="path854" />
  </g>
</svg>
